<svg xmlns="http://www.w3.org/2000/svg" xmlns:xlink="http://www.w3.org/1999/xlink" width="256" zoomAndPan="magnify" viewBox="0 0 192 191.999996" height="256" preserveAspectRatio="xMidYMid meet" version="1.0"><defs><clipPath id="c21bfbe1ed"><path d="M 28.851562 65.117188 L 155.601562 65.117188 L 155.601562 122.117188 L 28.851562 122.117188 Z M 28.851562 65.117188 " clip-rule="nonzero"/></clipPath></defs><rect x="-19.2" width="230.4" fill="#ffffff" y="-19.2" height="230.399995" fill-opacity="1"/><rect x="-19.2" width="230.4" fill="#015d48" y="-19.2" height="230.399995" fill-opacity="1"/><g clip-path="url(#c21bfbe1ed)"><path fill="#ffffff" d="M 140.8125 104.246094 C 136.90625 104.246094 134.667969 100.269531 134.667969 93.46875 C 134.667969 87.640625 136.757812 84.25 140.351562 84.25 C 143.941406 84.25 146.207031 88.285156 146.207031 95.140625 C 146.203125 100.503906 143.957031 104.246094 140.8125 104.246094 Z M 140.460938 108.972656 C 149.15625 108.972656 155.234375 103.324219 155.234375 94.28125 C 155.234375 85.34375 149.15625 79.582031 140.460938 79.582031 C 131.660156 79.582031 125.574219 85.34375 125.574219 94.28125 C 125.574219 103.320312 131.660156 108.972656 140.460938 108.972656 Z M 65.382812 108.804688 L 72.855469 108.804688 L 73.011719 90.878906 C 73.070312 83.332031 70.234375 79.640625 64.207031 79.640625 C 60.300781 79.640625 57.371094 82.003906 55.691406 85.34375 C 54.59375 81.652344 51.921875 79.640625 48.101562 79.640625 C 47.171875 79.640625 46.257812 79.773438 45.363281 80.03125 C 44.464844 80.289062 43.625 80.664062 42.835938 81.15625 C 42.046875 81.652344 41.339844 82.246094 40.71875 82.9375 C 40.097656 83.628906 39.585938 84.390625 39.179688 85.226562 L 39.179688 79.582031 L 32.230469 81.601562 L 32.230469 108.796875 L 39.816406 108.796875 L 39.816406 87.648438 C 41.054688 86.605469 42.484375 86.085938 44.105469 86.09375 C 47.289062 86.09375 48.664062 87.941406 48.664062 91.398438 L 48.664062 108.804688 L 56.347656 108.804688 L 56.289062 87.707031 C 57.585938 86.652344 59.074219 86.113281 60.75 86.09375 C 63.535156 86.09375 65.382812 87.765625 65.382812 91.398438 Z M -42.25 108.804688 L -34.777344 108.804688 L -34.601562 90.878906 C -34.542969 83.332031 -37.382812 79.640625 -43.410156 79.640625 C -47.3125 79.640625 -50.242188 82.003906 -51.921875 85.34375 C -53.023438 81.652344 -55.691406 79.640625 -59.511719 79.640625 C -60.441406 79.640625 -61.355469 79.769531 -62.253906 80.027344 C -63.148438 80.285156 -63.992188 80.664062 -64.78125 81.15625 C -65.570312 81.652344 -66.273438 82.246094 -66.894531 82.9375 C -67.515625 83.628906 -68.027344 84.390625 -68.433594 85.226562 L -68.433594 79.582031 L -75.386719 81.601562 L -75.386719 108.796875 L -67.796875 108.796875 L -67.796875 87.648438 C -66.558594 86.605469 -65.128906 86.085938 -63.507812 86.09375 C -60.324219 86.09375 -58.949219 87.941406 -58.949219 91.398438 L -58.949219 108.804688 L -51.304688 108.804688 L -51.363281 87.707031 C -50.066406 86.652344 -48.578125 86.113281 -46.902344 86.09375 C -44.125 86.09375 -42.269531 87.765625 -42.269531 91.398438 Z M 79.753906 111.507812 L 81.199219 119.867188 C 85.542969 121.296875 90.003906 122.039062 94.582031 122.097656 C 111.035156 122.097656 120.941406 113.910156 120.941406 100.140625 L 120.941406 79.417969 L 113.363281 81.710938 L 113.363281 98.785156 C 113.363281 108.816406 106.472656 115.097656 95.003906 115.097656 C 89.082031 115.082031 84.851562 113.816406 79.753906 111.507812 Z M 17.589844 68.398438 L 17.589844 108.804688 L 25.179688 108.804688 L 25.179688 66.066406 Z M 117.121094 75.605469 C 120.246094 75.605469 122.445312 73.476562 122.445312 70.425781 C 122.464844 70.070312 122.449219 69.71875 122.394531 69.371094 C 122.34375 69.019531 122.253906 68.679688 122.125 68.347656 C 122 68.015625 121.839844 67.703125 121.648438 67.402344 C 121.453125 67.105469 121.230469 66.832031 120.980469 66.582031 C 120.730469 66.332031 120.453125 66.109375 120.15625 65.917969 C 119.855469 65.722656 119.542969 65.5625 119.207031 65.4375 C 118.875 65.3125 118.535156 65.222656 118.179688 65.167969 C 117.828125 65.113281 117.476562 65.09375 117.121094 65.117188 C 113.988281 65.117188 111.914062 67.1875 111.914062 70.417969 C 111.894531 70.765625 111.914062 71.105469 111.96875 71.449219 C 112.023438 71.789062 112.109375 72.121094 112.234375 72.445312 C 112.359375 72.765625 112.515625 73.074219 112.707031 73.363281 C 112.894531 73.652344 113.113281 73.921875 113.355469 74.164062 C 113.601562 74.410156 113.871094 74.625 114.164062 74.8125 C 114.453125 75.003906 114.761719 75.160156 115.085938 75.28125 C 115.410156 75.40625 115.742188 75.496094 116.085938 75.550781 C 116.429688 75.605469 116.773438 75.625 117.121094 75.605469 Z M 93.421875 104.742188 C 89.515625 104.742188 87.285156 100.476562 87.285156 93.675781 C 87.285156 87.851562 89.367188 84.28125 92.960938 84.28125 C 96.554688 84.28125 98.816406 88.492188 98.816406 95.347656 C 98.8125 100.675781 96.554688 104.710938 93.421875 104.710938 Z M 93.078125 109.46875 C 101.765625 109.46875 107.847656 103.53125 107.847656 94.480469 C 107.847656 85.550781 101.765625 79.585938 93.078125 79.585938 C 84.273438 79.585938 78.1875 85.523438 78.1875 94.480469 C 78.21875 103.5 84.273438 109.4375 93.078125 109.4375 Z M 6.296875 75.429688 C 6.636719 75.449219 6.96875 75.429688 7.304688 75.378906 C 7.636719 75.328125 7.960938 75.242188 8.273438 75.121094 C 8.589844 75 8.890625 74.851562 9.171875 74.667969 C 9.457031 74.488281 9.71875 74.28125 9.957031 74.042969 C 10.199219 73.808594 10.410156 73.550781 10.597656 73.269531 C 10.78125 72.988281 10.9375 72.695312 11.0625 72.382812 C 11.183594 72.070312 11.273438 71.75 11.332031 71.417969 C 11.386719 71.085938 11.40625 70.753906 11.394531 70.417969 C 11.394531 67.304688 9.3125 65.289062 6.296875 65.289062 C 3.109375 65.289062 1.144531 67.304688 1.144531 70.417969 C 1.144531 73.359375 3.109375 75.429688 6.296875 75.429688 Z M 2.394531 108.804688 L 9.980469 108.804688 L 9.980469 79.40625 L 2.394531 81.710938 Z M -22.4375 109.144531 C -21.566406 109.152344 -20.710938 109.039062 -19.871094 108.804688 C -19.03125 108.574219 -18.242188 108.230469 -17.5 107.777344 C -16.757812 107.324219 -16.089844 106.777344 -15.5 106.140625 C -14.914062 105.5 -14.425781 104.792969 -14.035156 104.019531 C -13.167969 106.898438 -11.253906 108.804688 -8.359375 108.804688 C -5.058594 108.804688 -2.859375 106.148438 -1.929688 102.113281 L -3.726562 101.65625 C -4.070312 102.691406 -4.765625 103.324219 -5.582031 103.324219 C -6.394531 103.324219 -6.796875 102.675781 -6.796875 101.886719 L -6.796875 89.261719 C -6.796875 83.039062 -10.273438 79.640625 -16.761719 79.640625 C -20.875 79.640625 -24.519531 80.734375 -27.011719 82.519531 L -28.230469 90.289062 C -25.15625 87.8125 -22.144531 86.40625 -19.117188 86.40625 C -15.929688 86.40625 -14.367188 87.617188 -14.367188 90.15625 L -14.367188 91.367188 L -21.363281 93.8125 C -26.257812 95.492188 -29.332031 98.785156 -29.332031 102.980469 C -29.332031 106.839844 -26.894531 109.144531 -22.4375 109.144531 Z M -18.902344 103.785156 C -20.816406 103.785156 -21.976562 102.808594 -21.976562 101.078125 C -21.976562 99.058594 -20.671875 97.839844 -17.980469 96.8125 L -14.386719 95.433594 L -14.386719 101.195312 C -15.660156 102.808594 -17.339844 103.785156 -18.902344 103.785156 Z M -18.902344 103.785156 " fill-opacity="1" fill-rule="nonzero"/></g></svg>