<svg xmlns="http://www.w3.org/2000/svg" viewBox="0 0 354.33 88.03">
    <path
        d="M332.17,60.43c-6,0-9.44-6.14-9.44-16.64,0-9,3.21-14.24,8.73-14.24s9,6.23,9,16.82C340.45,54.65,337,60.43,332.17,60.43Zm-.54,7.3c13.36,0,22.7-8.72,22.7-22.69,0-13.8-9.34-22.7-22.7-22.7-13.52,0-22.87,8.9-22.87,22.7C308.76,59,318.11,67.73,331.63,67.73Zm-115.35-.26h11.48L228,39.79c.09-11.66-4.27-17.36-13.53-17.36-6,0-10.5,3.65-13.08,8.81-1.69-5.7-5.79-8.81-11.66-8.81a15.26,15.26,0,0,0-13.71,8.63V22.34l-10.68,3.12v42H177V34.8a10.11,10.11,0,0,1,6.59-2.4c4.89,0,7,2.85,7,8.19V67.47H202.4l-.09-32.58a11,11,0,0,1,6.85-2.49c4.28,0,7.12,2.58,7.12,8.19Zm-165.37,0H62.39l.27-27.68c.09-11.66-4.27-17.36-13.53-17.36-6,0-10.5,3.65-13.08,8.81-1.69-5.7-5.79-8.81-11.66-8.81a15.25,15.25,0,0,0-13.71,8.63V22.34L0,25.46v42H11.66V34.8a10.11,10.11,0,0,1,6.59-2.4c4.89,0,7,2.85,7,8.19V67.47H37l-.09-32.58a11,11,0,0,1,6.85-2.49c4.27,0,7.12,2.58,7.12,8.19Zm187.45,4.18,2.22,12.91A68.34,68.34,0,0,0,261.14,88c25.28,0,40.5-12.64,40.5-33.91v-32L290,25.63V52c0,15.49-10.59,25.19-28.21,25.19C252.69,77.17,246.19,75.21,238.36,71.65ZM142.85,5.07v62.4h11.66v-66ZM295.77,16.2c4.8,0,8.18-3.29,8.18-8A7.75,7.75,0,0,0,295.77,0c-4.81,0-8,3.2-8,8.19A7.62,7.62,0,0,0,295.77,16.2Zm-36.41,45c-6,0-9.43-6.59-9.43-17.09,0-9,3.2-14.51,8.72-14.51s9,6.5,9,17.09C267.64,54.92,264.17,61.15,259.36,61.15Zm-.53,7.3c13.35,0,22.69-9.17,22.69-23.15,0-13.79-9.34-23-22.69-23-13.53,0-22.88,9.17-22.88,23C236,59.28,245.3,68.45,258.83,68.45ZM125.5,15.93a7.45,7.45,0,0,0,7.83-7.74c0-4.81-3.2-7.92-7.83-7.92-4.9,0-7.92,3.11-7.92,7.92C117.58,12.73,120.6,15.93,125.5,15.93Zm-6,51.54h11.66V22.07l-11.66,3.56ZM81.35,68a14.32,14.32,0,0,0,12.91-7.92c1.33,4.45,4.27,7.39,8.72,7.39,5.07,0,8.45-4.1,9.88-10.33l-2.76-.71c-.53,1.6-1.6,2.58-2.85,2.58s-1.87-1-1.87-2.22V37.29c0-9.61-5.34-14.86-15.31-14.86-6.32,0-11.92,1.69-15.75,4.45l-1.87,12c4.72-3.83,9.35-6,14-6,4.9,0,7.3,1.87,7.3,5.79v1.87L83,44.32C75.48,46.91,70.76,52,70.76,58.48,70.76,64.44,74.5,68,81.35,68Zm5.43-8.28c-2.94,0-4.72-1.51-4.72-4.18,0-3.12,2-5,6.14-6.59l5.52-2.13v8.9C91.76,58.21,89.18,59.72,86.78,59.72Z" />
</svg>
